nColumns=19
nRows=70
DataType=double
version=3
OpenSimVersion=4.1
endheader
time	ground_force_1_vx	ground_force_1_vy	ground_force_1_vz	ground_force_1_px	ground_force_1_py	ground_force_1_pz	ground_force_1_mx	ground_force_1_my	ground_force_1_mz	ground_force_2_vx	ground_force_2_vy	ground_force_2_vz	ground_force_2_px	ground_force_2_py	ground_force_2_pz	ground_force_2_mx	ground_force_2_my	ground_force_2_mz
0	-132.527	647.595	15.3574	0.0610738	0.006	-0.210963	0	1.05737	0	0	0	0	0.687826	0	-0.24844	0	0	0
0.01	-136.311	666.833	11.4216	0.0642148	0.006	-0.209906	0	1.21956	0	0	0	0	0.687826	0	-0.24844	0	0	0
0.02	-139.71	685.595	6.6871	0.0682368	0.006	-0.208518	0	1.38927	0	0	0	0	0.687826	0	-0.24844	0	0	0
0.03	-142.474	702.94	1.25649	0.0725738	0.006	-0.20699	0	1.56704	0	0	0	0	0.687826	0	-0.24844	0	0	0
0.04	-144.448	718.259	-4.63028	0.0771988	0.006	-0.205346	0	1.75766	0	0	0	0	0.687826	0	-0.24844	0	0	0
0.05	-145.598	731.353	-10.6208	0.0820938	0.006	-0.203618	0	1.96758	0	0	0	0	0.687826	0	-0.24844	0	0	0
0.06	-145.98	742.343	-16.322	0.0872388	0.006	-0.201842	0	2.19923	0	0	0	0	0.687826	0	-0.24844	0	0	0
0.07	-145.702	751.496	-21.3816	0.0926088	0.006	-0.200052	0	2.44719	0	0	0	0	0.687826	0	-0.24844	0	0	0
0.08	-144.872	759.057	-25.5452	0.0981658	0.006	-0.198281	0	2.6989	0	0	0	0	0.687826	0	-0.24844	0	0	0
0.09	-143.576	765.144	-28.6931	0.103861	0.006	-0.196552	0	2.93732	0	0	0	0	0.687826	0	-0.24844	0	0	0
0.1	-141.885	769.739	-30.8523	0.109642	0.006	-0.194879	0	3.14371	0	0	0	0	0.687826	0	-0.24844	0	0	0
0.11	-139.85	772.742	-32.1749	0.11546	0.006	-0.193265	0	3.30064	0	0	0	0	0.687826	0	-0.24844	0	0	0
0.12	-137.507	774.039	-32.8835	0.121268	0.006	-0.191711	0	3.39541	0	0	0	0	0.687826	0	-0.24844	0	0	0
0.13	-134.886	773.559	-33.2034	0.127028	0.006	-0.190216	0	3.42148	0	0	0	0	0.687826	0	-0.24844	0	0	0
0.14	-132.013	771.3	-33.3102	0.132706	0.006	-0.188786	0	3.37712	0	0	0	0	0.687826	0	-0.24844	0	0	0
0.15	-128.916	767.342	-33.3037	0.138271	0.006	-0.187436	0	3.26348	0	0	0	0	0.687826	0	-0.24844	0	0	0
0.16	-125.62	761.853	-33.2069	0.143695	0.006	-0.186192	0	3.08344	0	0	0	0	0.687826	0	-0.24844	0	0	0
0.17	-122.148	755.084	-32.9833	0.148945	0.006	-0.185089	0	2.84139	0	0	0	0	0.687826	0	-0.24844	0	0	0
0.18	-118.524	747.359	-32.5657	0.153987	0.006	-0.184167	0	2.5435	0	0	0	0	0.687826	0	-0.24844	0	0	0
0.19	-114.77	739.038	-31.8883	0.158779	0.006	-0.183465	0	2.19769	0	0	0	0	0.687826	0	-0.24844	0	0	0
0.2	-110.903	730.481	-30.9134	0.163277	0.006	-0.183017	0	1.8131	0	0	0	0	0.687826	0	-0.24844	0	0	0
0.21	-106.934	722.016	-29.6402	0.167431	0.006	-0.18285	0	1.39934	0	0	0	0	0.687826	0	-0.24844	0	0	0
0.22	-102.871	713.926	-28.1008	0.171195	0.006	-0.182976	0	0.965668	0	0	0	0	0.687826	0	-0.24844	0	0	0
0.23	-98.72	706.446	-26.3446	0.174523	0.006	-0.183397	0	0.520564	0	0	0	0	0.687826	0	-0.24844	0	0	0
0.24	-94.4835	699.784	-24.4219	0.177376	0.006	-0.184105	0	0.071702	0	0	0	0	0.687826	0	-0.24844	0	0	0
0.25	-90.1561	694.126	-22.38	0.179723	0.006	-0.18508	0	-0.373974	0	0	0	0	0.687826	0	-0.24844	0	0	0
0.26	-85.7305	689.639	-20.2651	0.181544	0.006	-0.186288	0	-0.810173	0	0	0	0	0.687826	0	-0.24844	0	0	0
0.27	-81.2043	686.457	-18.1245	0.18284	0.006	-0.187687	0	-1.23139	0	0	0	0	0.687826	0	-0.24844	0	0	0
0.28	-76.5849	684.673	-16.0065	0.183633	0.006	-0.189225	0	-1.63319	0	0	0	0	0.687826	0	-0.24844	0	0	0
0.29	-71.8908	684.323	-13.958	0.183973	0.006	-0.190845	0	-2.01226	0	0	0	0	0.687826	0	-0.24844	0	0	0
0.3	-67.1528	685.381	-12.0236	0.183934	0.006	-0.192489	0	-2.36617	0	0	0	0	0.687826	0	-0.24844	0	0	0
0.31	-62.415	687.758	-10.2457	0.183614	0.006	-0.194098	0	-2.69276	0	0	0	0	0.687826	0	-0.24844	0	0	0
0.32	-57.732	691.293	-8.66304	0.183124	0.006	-0.195624	0	-2.98976	0	0	0	0	0.687826	0	-0.24844	0	0	0
0.33	-53.1634	695.75	-7.30414	0.18258	0.006	-0.197023	0	-3.25494	0	0	0	0	0.687826	0	-0.24844	0	0	0
0.34	-48.7676	700.834	-6.18252	0.182092	0.006	-0.198264	0	-3.48661	0	0	0	0	0.687826	0	-0.24844	0	0	0
0.35	-44.5934	706.218	-5.29791	0.181756	0.006	-0.199328	0	-3.68413	0	0	0	0	0.687826	0	-0.24844	0	0	0
0.36	-40.6698	711.576	-4.64358	0.181642	0.006	-0.200206	0	-3.84826	0	0	0	0	0.687826	0	-0.24844	0	0	0
0.37	-36.9984	716.617	-4.21293	0.181796	0.006	-0.200896	0	-3.98127	0	0	0	0	0.687826	0	-0.24844	0	0	0
0.38	-33.5552	721.124	-4.0016	0.182239	0.006	-0.201404	0	-4.08649	0	0	0	0	0.687826	0	-0.24844	0	0	0
0.39	-30.3036	724.961	-4.00602	0.182979	0.006	-0.201739	0	-4.16775	0	0	0	0	0.687826	0	-0.24844	0	0	0
0.4	-27.2045	728.077	-4.21947	0.184014	0.006	-0.201913	0	-4.22894	0	0	0	0	0.687826	0	-0.24844	0	0	0
0.41	-24.2191	730.487	-4.63004	0.185336	0.006	-0.20194	0	-4.27398	0	0	0	0	0.687826	0	-0.24844	0	0	0
0.42	-21.3103	732.261	-5.21952	0.186938	0.006	-0.201833	0	-4.30697	0	0	0	0	0.687826	0	-0.24844	0	0	0
0.43	-18.4395	733.52	-5.96146	0.188808	0.006	-0.20161	0	-4.33224	0	0	0	0	0.687826	0	-0.24844	0	0	0
0.44	-15.5671	734.422	-6.82045	0.190933	0.006	-0.201285	0	-4.35422	0	0	0	0	0.687826	0	-0.24844	0	0	0
0.45	-12.6549	735.155	-7.75455	0.1933	0.006	-0.200876	0	-4.37685	0	0	0	0	0.687826	0	-0.24844	0	0	0
0.46	-9.67073	735.927	-8.72046	0.195893	0.006	-0.200398	0	-4.40289	0	0	0	0	0.687826	0	-0.24844	0	0	0
0.47	-6.59266	736.949	-9.67944	0.198697	0.006	-0.199864	0	-4.43369	0	0	0	0	0.687826	0	-0.24844	0	0	0
0.48	-3.41099	738.417	-10.6012	0.201694	0.006	-0.199288	0	-4.46917	0	0	0	0	0.687826	0	-0.24844	0	0	0
0.49	-0.128279	740.502	-11.4658	0.204868	0.006	-0.198682	0	-4.50827	0	0	0	0	0.687826	0	-0.24844	0	0	0
0.5	3.24432	743.332	-12.2637	0.2082	0.006	-0.198056	0	-4.54932	0	0	0	0	0.687826	0	-0.24844	0	0	0
0.51	6.69553	746.989	-12.9943	0.211667	0.006	-0.19742	0	-4.59021	0	0	0	0	0.687826	0	-0.24844	0	0	0
0.52	10.2213	751.51	-13.6649	0.215241	0.006	-0.196781	0	-4.6285	0	0	0	0	0.687826	0	-0.24844	0	0	0
0.53	13.8298	756.877	-14.2897	0.218891	0.006	-0.196146	0	-4.6615	0	0	0	0	0.687826	0	-0.24844	0	0	0
0.54	17.5426	763.003	-14.8886	0.222581	0.006	-0.195522	0	-4.68633	0	0	0	0	0.687826	0	-0.24844	0	0	0
0.55	21.3938	769.721	-15.4863	0.226274	0.006	-0.194914	0	-4.70013	0	0	0	0	0.687826	0	-0.24844	0	0	0
0.56	25.4267	776.803	-16.1094	0.229936	0.006	-0.194326	0	-4.70028	0	0	0	0	0.687826	0	-0.24844	0	0	0
0.57	29.6884	784.003	-16.7827	0.233533	0.006	-0.193765	0	-4.68441	0	0	0	0	0.687826	0	-0.24844	0	0	0
0.58	34.2222	791.093	-17.523	0.237037	0.006	-0.193234	0	-4.65061	0	0	0	0	0.687826	0	-0.24844	0	0	0
0.59	39.061	797.871	-18.3362	0.240423	0.006	-0.192737	0	-4.59782	0	0	0	0	0.687826	0	-0.24844	0	0	0
0.6	44.2215	804.163	-19.2149	0.243669	0.006	-0.192278	0	-4.5262	0	0	0	0	0.687826	0	-0.24844	0	0	0
0.61	49.6984	809.801	-20.1371	0.24676	0.006	-0.191859	0	-4.43728	0	0	0	0	0.687826	0	-0.24844	0	0	0
0.62	55.4629	814.607	-21.0661	0.249684	0.006	-0.191482	0	-4.33403	0	0	0	0	0.687826	0	-0.24844	0	0	0
0.63	61.4637	818.383	-21.9511	0.252435	0.006	-0.191148	0	-4.22059	0	0	0	0	0.687826	0	-0.24844	0	0	0
0.64	67.6293	820.914	-22.7305	0.25501	0.006	-0.190857	0	-4.10169	0	0	0	0	0.687826	0	-0.24844	0	0	0
0.65	73.8714	821.963	-23.336	0.257414	0.006	-0.190607	0	-3.98223	0	0	0	0	0.687826	0	-0.24844	0	0	0
0.66	80.0875	821.27	-23.6965	0.259651	0.006	-0.190393	0	-3.86687	0	0	0	0	0.687826	0	-0.24844	0	0	0
0.67	86.1605	818.535	-23.7432	0.261734	0.006	-0.19021	0	-3.75995	0	0	0	0	0.687826	0	-0.24844	0	0	0
0.68	91.9575	813.412	-23.4152	0.263675	0.006	-0.190049	0	-3.66509	0	0	0	0	0.687826	0	-0.24844	0	0	0
0.69	97.3297	805.513	-22.6664	0.26549	0.006	-0.189899	0	-3.58469	0	0	0	0	0.687826	0	-0.24844	0	0	0
